<?xml version="1.0" standalone="no"?><!DOCTYPE svg PUBLIC "-//W3C//DTD SVG 1.1//EN" "http://www.w3.org/Graphics/SVG/1.1/DTD/svg11.dtd"><svg t="1779616700504" class="icon" viewBox="0 0 1024 1024" version="1.1" xmlns="http://www.w3.org/2000/svg" p-id="11873" width="48" height="48" xmlns:xlink="http://www.w3.org/1999/xlink"><path d="M681.04 64.441c-49.19-0.26-94.23 27.55-116.05 71.65L512 242.061l-52.99-105.97c-31.72-64.09-109.39-90.34-173.48-58.62-44.26 21.91-72.21 67.08-72.05 116.46 0 93.36 75.68 169.04 169.04 169.04h258.97c93.36 0 169.04-75.68 169.04-169.04-0.21-71.43-58.06-129.28-129.49-129.49z m-298.52 223.89c-52.14 0-94.41-42.27-94.41-94.41-0.27-30.29 24.06-55.07 54.36-55.34 21.11-0.19 40.46 11.76 49.75 30.71l59.33 119.03-69.03 0.01z m258.96 0h-69.03l59.33-119.03c13.33-27.2 46.19-38.45 73.39-25.12a54.85 54.85 0 0 1 30.71 49.75c0.01 52.14-42.26 94.4-94.4 94.4z" fill="#E04B3B" p-id="11874"></path><path d="M176.16 437.591h671.67v410.47c0 61.83-50.12 111.95-111.95 111.95H288.11c-61.83 0-111.95-50.12-111.95-111.95v-410.47z" fill="#FFCE00" p-id="11875"></path><path d="M176.16 493.561h634.36a92.93 92.93 0 0 0 37.32-7.83v-48.14H176.16v55.97z" fill="#E2B703" p-id="11876"></path><path d="M194.82 288.331h634.36c51.52 0 93.29 41.77 93.29 93.29s-41.77 93.29-93.29 93.29H194.82c-51.52 0-93.29-41.77-93.29-93.29 0-51.53 41.77-93.29 93.29-93.29z" fill="#FFEC00" p-id="11877"></path><path d="M437.37 288.331h149.26v186.58H437.37z" fill="#EF8C54" p-id="11878"></path><path d="M437.37 474.901h149.26v485.1H437.37z" fill="#F16A54" p-id="11879"></path><path d="M437.37 474.901h149.26v18.66H437.37z" fill="#D34F42" p-id="11880"></path></svg>